<?xml version="1.0" encoding="iso-8859-1"?>
<!-- Generator: Adobe Illustrator 19.0.0, SVG Export Plug-In . SVG Version: 6.00 Build 0)  -->
<svg version="1.1" id="Layer_1" xmlns="http://www.w3.org/2000/svg" xmlns:xlink="http://www.w3.org/1999/xlink" x="0px" y="0px"
	 viewBox="0 0 512 512" style="enable-background:new 0 0 512 512;" xml:space="preserve">
<g>
	<g>
		<path d="M394.667,277.333c-64.683,0-117.333,52.651-117.333,117.333S329.984,512,394.667,512S512,459.349,512,394.667
			S459.349,277.333,394.667,277.333z M394.667,490.667c-52.928,0-96-43.072-96-96s43.072-96,96-96s96,43.072,96,96
			S447.595,490.667,394.667,490.667z"/>
	</g>
</g>
<g>
	<g>
		<path d="M409.749,394.667l35.115-35.115c4.16-4.16,4.16-10.923,0-15.083c-4.16-4.16-10.923-4.16-15.083,0l-35.115,35.115
			l-35.115-35.115c-4.16-4.16-10.923-4.16-15.083,0c-4.16,4.16-4.16,10.923,0,15.083l35.115,35.115l-35.115,35.115
			c-4.16,4.16-4.16,10.923,0,15.083c2.069,2.091,4.8,3.136,7.531,3.136c2.731,0,5.461-1.045,7.531-3.115l35.115-35.115
			l35.115,35.115c2.112,2.069,4.843,3.115,7.573,3.115c2.731,0,5.461-1.045,7.531-3.115c4.16-4.16,4.16-10.923,0-15.083
			L409.749,394.667z"/>
	</g>
</g>
<g>
	<g>
		<path d="M416,0H53.333C23.915,0,0,23.915,0,53.333V416c0,29.419,23.915,53.333,53.333,53.333h192
			c5.888,0,10.667-4.779,10.667-10.667S251.221,448,245.333,448h-192c-17.643,0-32-14.357-32-32V106.667H448V256
			c0,5.888,4.779,10.667,10.667,10.667s10.667-4.779,10.667-10.667V53.333C469.333,23.915,445.419,0,416,0z M448,85.333H21.333v-32
			c0-17.643,14.357-32,32-32H416c17.643,0,32,14.357,32,32V85.333z"/>
	</g>
</g>
<g>
	<g>
		<circle cx="53.333" cy="53.333" r="10.667"/>
	</g>
</g>
<g>
	<g>
		<circle cx="96" cy="53.333" r="10.667"/>
	</g>
</g>
<g>
	<g>
		<circle cx="138.667" cy="53.333" r="10.667"/>
	</g>
</g>
<g>
</g>
<g>
</g>
<g>
</g>
<g>
</g>
<g>
</g>
<g>
</g>
<g>
</g>
<g>
</g>
<g>
</g>
<g>
</g>
<g>
</g>
<g>
</g>
<g>
</g>
<g>
</g>
<g>
</g>
</svg>
